<svg version="1.1" xmlns="http://www.w3.org/2000/svg" xmlns:xlink="http://www.w3.org/1999/xlink" width="1321" height="1003"><defs></defs><g><g transform="translate(-382,-134) scale(1,1)"><rect fill="#C0C0C0" stroke="none" x="671" y="263" width="1016" height="735" opacity="0.2"></rect></g><g transform="translate(-382,-134) scale(1,1)"><rect fill="#ffffff" stroke="none" x="664" y="256" width="1016" height="735"></rect></g><g transform="translate(-382,-134) scale(1,1)"><path fill="none" stroke="#000000" d="M 664 256 L 1680 256 L 1680 991 L 664 991 L 664 256 Z Z" stroke-miterlimit="10"></path></g><g transform="translate(-382,-134) scale(1,1)"><g><path fill="none" stroke="none"></path><text fill="#000000" stroke="none" font-family="Arial" font-size="13px" font-style="normal" font-weight="bold" text-decoration="none" x="1119" y="275.5">TournamentPlaner</text></g></g><g transform="translate(-382,-134) scale(1,1)"><path fill="#ffffff" stroke="none" d="M 1319.8207272727273 1057.6799999999998 C 1319.8207272727273 1052.8861679359998 1323.7065695976728 1049 1328.5 1049 C 1333.2934304023272 1049 1337.1792727272727 1052.8861679359998 1337.1792727272727 1057.6799999999998 C 1337.1792727272727 1062.473832064 1333.2934304023272 1066.36 1328.5 1066.36 C 1323.7065695976728 1066.36 1319.8207272727273 1062.473832064 1319.8207272727273 1057.6799999999998 Z"></path></g><g transform="translate(-382,-134) scale(1,1)"><path fill="none" stroke="#000000" d="M 1319.8207272727273 1057.6799999999998 C 1319.8207272727273 1052.8861679359998 1323.7065695976728 1049 1328.5 1049 C 1333.2934304023272 1049 1337.1792727272727 1052.8861679359998 1337.1792727272727 1057.6799999999998 C 1337.1792727272727 1062.473832064 1333.2934304023272 1066.36 1328.5 1066.36 C 1323.7065695976728 1066.36 1319.8207272727273 1062.473832064 1319.8207272727273 1057.6799999999998 Z" stroke-miterlimit="10"></path></g><g transform="translate(-382,-134) scale(1,1)"><path fill="none" stroke="#000000" d="M 1328.5 1066.36 L 1328.5 1083.64" stroke-miterlimit="10"></path></g><g transform="translate(-382,-134) scale(1,1)"><path fill="none" stroke="#000000" d="M 1319.3101818181817 1072.84 L 1337.6898181818183 1072.84" stroke-miterlimit="10"></path></g><g transform="translate(-382,-134) scale(1,1)"><path fill="none" stroke="#000000" d="M 1328.5 1083.64 L 1315.7363636363636 1101" stroke-miterlimit="10"></path></g><g transform="translate(-382,-134) scale(1,1)"><path fill="none" stroke="#000000" d="M 1328.5 1083.64 L 1341.2636363636364 1101" stroke-miterlimit="10"></path></g><g transform="translate(-382,-134) scale(1,1)"><g><path fill="none" stroke="none"></path><text fill="#000000" stroke="none" font-family="Arial" font-size="13px" font-style="normal" font-weight="bold" text-decoration="none" x="1310" y="1121.5">Player</text></g></g><g transform="translate(-382,-134) scale(1,1)"><path fill="#ffffff" stroke="none" d="M 450.82072727272725 257.68 C 450.82072727272725 252.886167936 454.70656959767274 249 459.5 249 C 464.29343040232726 249 468.17927272727275 252.886167936 468.17927272727275 257.68 C 468.17927272727275 262.473832064 464.29343040232726 266.36 459.5 266.36 C 454.70656959767274 266.36 450.82072727272725 262.473832064 450.82072727272725 257.68 Z"></path></g><g transform="translate(-382,-134) scale(1,1)"><path fill="none" stroke="#000000" d="M 450.82072727272725 257.68 C 450.82072727272725 252.886167936 454.70656959767274 249 459.5 249 C 464.29343040232726 249 468.17927272727275 252.886167936 468.17927272727275 257.68 C 468.17927272727275 262.473832064 464.29343040232726 266.36 459.5 266.36 C 454.70656959767274 266.36 450.82072727272725 262.473832064 450.82072727272725 257.68 Z" stroke-miterlimit="10"></path></g><g transform="translate(-382,-134) scale(1,1)"><path fill="none" stroke="#000000" d="M 459.5 266.36 L 459.5 283.64" stroke-miterlimit="10"></path></g><g transform="translate(-382,-134) scale(1,1)"><path fill="none" stroke="#000000" d="M 450.31018181818183 272.84 L 468.68981818181817 272.84" stroke-miterlimit="10"></path></g><g transform="translate(-382,-134) scale(1,1)"><path fill="none" stroke="#000000" d="M 459.5 283.64 L 446.73636363636365 301" stroke-miterlimit="10"></path></g><g transform="translate(-382,-134) scale(1,1)"><path fill="none" stroke="#000000" d="M 459.5 283.64 L 472.26363636363635 301" stroke-miterlimit="10"></path></g><g transform="translate(-382,-134) scale(1,1)"><g><path fill="none" stroke="none"></path><text fill="#000000" stroke="none" font-family="Arial" font-size="13px" font-style="normal" font-weight="bold" text-decoration="none" x="416.5" y="321.5">PlatformAdmin</text></g></g><g transform="translate(-382,-134) scale(1,1)"><path fill="#ffffff" stroke="none" d="M 445.82072727272725 609.6800000000001 C 445.82072727272725 604.8861679360001 449.70656959767274 601 454.5 601 C 459.29343040232726 601 463.17927272727275 604.8861679360001 463.17927272727275 609.6800000000001 C 463.17927272727275 614.473832064 459.29343040232726 618.36 454.5 618.36 C 449.70656959767274 618.36 445.82072727272725 614.473832064 445.82072727272725 609.6800000000001 Z"></path></g><g transform="translate(-382,-134) scale(1,1)"><path fill="none" stroke="#000000" d="M 445.82072727272725 609.6800000000001 C 445.82072727272725 604.8861679360001 449.70656959767274 601 454.5 601 C 459.29343040232726 601 463.17927272727275 604.8861679360001 463.17927272727275 609.6800000000001 C 463.17927272727275 614.473832064 459.29343040232726 618.36 454.5 618.36 C 449.70656959767274 618.36 445.82072727272725 614.473832064 445.82072727272725 609.6800000000001 Z" stroke-miterlimit="10"></path></g><g transform="translate(-382,-134) scale(1,1)"><path fill="none" stroke="#000000" d="M 454.5 618.36 L 454.5 635.64" stroke-miterlimit="10"></path></g><g transform="translate(-382,-134) scale(1,1)"><path fill="none" stroke="#000000" d="M 445.31018181818183 624.84 L 463.68981818181817 624.84" stroke-miterlimit="10"></path></g><g transform="translate(-382,-134) scale(1,1)"><path fill="none" stroke="#000000" d="M 454.5 635.64 L 441.73636363636365 653" stroke-miterlimit="10"></path></g><g transform="translate(-382,-134) scale(1,1)"><path fill="none" stroke="#000000" d="M 454.5 635.64 L 467.26363636363635 653" stroke-miterlimit="10"></path></g><g transform="translate(-382,-134) scale(1,1)"><g><path fill="none" stroke="none"></path><text fill="#000000" stroke="none" font-family="Arial" font-size="13px" font-style="normal" font-weight="bold" text-decoration="none" x="401.5" y="673.5">TournamentAdmin</text></g></g><g transform="translate(-382,-134) scale(1,1)"><path fill="#ffffff" stroke="none" d="M 1319.8207272727273 153.68 C 1319.8207272727273 148.886167936 1323.7065695976728 145 1328.5 145 C 1333.2934304023272 145 1337.1792727272727 148.886167936 1337.1792727272727 153.68 C 1337.1792727272727 158.47383206400002 1333.2934304023272 162.36 1328.5 162.36 C 1323.7065695976728 162.36 1319.8207272727273 158.47383206400002 1319.8207272727273 153.68 Z"></path></g><g transform="translate(-382,-134) scale(1,1)"><path fill="none" stroke="#000000" d="M 1319.8207272727273 153.68 C 1319.8207272727273 148.886167936 1323.7065695976728 145 1328.5 145 C 1333.2934304023272 145 1337.1792727272727 148.886167936 1337.1792727272727 153.68 C 1337.1792727272727 158.47383206400002 1333.2934304023272 162.36 1328.5 162.36 C 1323.7065695976728 162.36 1319.8207272727273 158.47383206400002 1319.8207272727273 153.68 Z" stroke-miterlimit="10"></path></g><g transform="translate(-382,-134) scale(1,1)"><path fill="none" stroke="#000000" d="M 1328.5 162.36 L 1328.5 179.64" stroke-miterlimit="10"></path></g><g transform="translate(-382,-134) scale(1,1)"><path fill="none" stroke="#000000" d="M 1319.3101818181817 168.84 L 1337.6898181818183 168.84" stroke-miterlimit="10"></path></g><g transform="translate(-382,-134) scale(1,1)"><path fill="none" stroke="#000000" d="M 1328.5 179.64 L 1315.7363636363636 197" stroke-miterlimit="10"></path></g><g transform="translate(-382,-134) scale(1,1)"><path fill="none" stroke="#000000" d="M 1328.5 179.64 L 1341.2636363636364 197" stroke-miterlimit="10"></path></g><g transform="translate(-382,-134) scale(1,1)"><g><path fill="none" stroke="none"></path><text fill="#000000" stroke="none" font-family="Arial" font-size="13px" font-style="normal" font-weight="bold" text-decoration="none" x="1314.5" y="217.5">Staff</text></g></g><g transform="translate(-382,-134) scale(1,1)"><path fill="#C0C0C0" stroke="none" d="M 839 400 C 839 390.6111584 867.4299152 383 902.5 383 C 937.5700848 383 966 390.6111584 966 400 C 966 409.3888416 937.5700848 417 902.5 417 C 867.4299152 417 839 409.3888416 839 400 Z" opacity="0.2"></path></g><g transform="translate(-382,-134) scale(1,1)"><path fill="#ffffff" stroke="none" d="M 832 393 C 832 383.6111584 860.4299152 376 895.5 376 C 930.5700848 376 959 383.6111584 959 393 C 959 402.3888416 930.5700848 410 895.5 410 C 860.4299152 410 832 402.3888416 832 393 Z"></path></g><g transform="translate(-382,-134) scale(1,1)"><path fill="none" stroke="#000000" d="M 832 393 C 832 383.6111584 860.4299152 376 895.5 376 C 930.5700848 376 959 383.6111584 959 393 C 959 402.3888416 930.5700848 410 895.5 410 C 860.4299152 410 832 402.3888416 832 393 Z" stroke-miterlimit="10"></path></g><g transform="translate(-382,-134) scale(1,1)"><g><path fill="none" stroke="none"></path><text fill="#000000" stroke="none" font-family="Arial" font-size="13px" font-style="normal" font-weight="bold" text-decoration="none" x="857" y="400">Create squad</text></g></g><g transform="translate(-382,-134) scale(1,1)"><path fill="#C0C0C0" stroke="none" d="M 863 608 C 863 598.6111584 903.294368 591 953 591 C 1002.705632 591 1043 598.6111584 1043 608 C 1043 617.3888416 1002.705632 625 953 625 C 903.294368 625 863 617.3888416 863 608 Z" opacity="0.2"></path></g><g transform="translate(-382,-134) scale(1,1)"><path fill="#ffffff" stroke="none" d="M 856 601 C 856 591.6111584 896.294368 584 946 584 C 995.705632 584 1036 591.6111584 1036 601 C 1036 610.3888416 995.705632 618 946 618 C 896.294368 618 856 610.3888416 856 601 Z"></path></g><g transform="translate(-382,-134) scale(1,1)"><path fill="none" stroke="#000000" d="M 856 601 C 856 591.6111584 896.294368 584 946 584 C 995.705632 584 1036 591.6111584 1036 601 C 1036 610.3888416 995.705632 618 946 618 C 896.294368 618 856 610.3888416 856 601 Z" stroke-miterlimit="10"></path></g><g transform="translate(-382,-134) scale(1,1)"><g><path fill="none" stroke="none"></path><text fill="#000000" stroke="none" font-family="Arial" font-size="13px" font-style="normal" font-weight="bold" text-decoration="none" x="890.5" y="608">Create Tournament</text></g></g><g transform="translate(-382,-134) scale(1,1)"><path fill="#C0C0C0" stroke="none" d="M 839 832 C 839 822.6111584 866.3106272 815 900 815 C 933.6893728 815 961 822.6111584 961 832 C 961 841.3888416 933.6893728 849 900 849 C 866.3106272 849 839 841.3888416 839 832 Z" opacity="0.2"></path></g><g transform="translate(-382,-134) scale(1,1)"><path fill="#ffffff" stroke="none" d="M 832 825 C 832 815.6111584 859.3106272 808 893 808 C 926.6893728 808 954 815.6111584 954 825 C 954 834.3888416 926.6893728 842 893 842 C 859.3106272 842 832 834.3888416 832 825 Z"></path></g><g transform="translate(-382,-134) scale(1,1)"><path fill="none" stroke="#000000" d="M 832 825 C 832 815.6111584 859.3106272 808 893 808 C 926.6893728 808 954 815.6111584 954 825 C 954 834.3888416 926.6893728 842 893 842 C 859.3106272 842 832 834.3888416 832 825 Z" stroke-miterlimit="10"></path></g><g transform="translate(-382,-134) scale(1,1)"><g><path fill="none" stroke="none"></path><text fill="#000000" stroke="none" font-family="Arial" font-size="13px" font-style="normal" font-weight="bold" text-decoration="none" x="856" y="832">Create game</text></g></g><g transform="translate(-382,-134) scale(1,1)"><path fill="#C0C0C0" stroke="none" d="M 823 912 C 823 902.6111584 851.2060576 895 886 895 C 920.7939424 895 949 902.6111584 949 912 C 949 921.3888416 920.7939424 929 886 929 C 851.2060576 929 823 921.3888416 823 912 Z" opacity="0.2"></path></g><g transform="translate(-382,-134) scale(1,1)"><path fill="#ffffff" stroke="none" d="M 816 905 C 816 895.6111584 844.2060576 888 879 888 C 913.7939424 888 942 895.6111584 942 905 C 942 914.3888416 913.7939424 922 879 922 C 844.2060576 922 816 914.3888416 816 905 Z"></path></g><g transform="translate(-382,-134) scale(1,1)"><path fill="none" stroke="#000000" d="M 816 905 C 816 895.6111584 844.2060576 888 879 888 C 913.7939424 888 942 895.6111584 942 905 C 942 914.3888416 913.7939424 922 879 922 C 844.2060576 922 816 914.3888416 816 905 Z" stroke-miterlimit="10"></path></g><g transform="translate(-382,-134) scale(1,1)"><g><path fill="none" stroke="none"></path><text fill="#000000" stroke="none" font-family="Arial" font-size="13px" font-style="normal" font-weight="bold" text-decoration="none" x="841.5" y="912">Modify game</text></g></g><g transform="translate(-382,-134) scale(1,1)"><path fill="#C0C0C0" stroke="none" d="M 839 776 C 839 766.6111584 865.862912 759 899 759 C 932.137088 759 959 766.6111584 959 776 C 959 785.3888416 932.137088 793 899 793 C 865.862912 793 839 785.3888416 839 776 Z" opacity="0.2"></path></g><g transform="translate(-382,-134) scale(1,1)"><path fill="#ffffff" stroke="none" d="M 832 769 C 832 759.6111584 858.862912 752 892 752 C 925.137088 752 952 759.6111584 952 769 C 952 778.3888416 925.137088 786 892 786 C 858.862912 786 832 778.3888416 832 769 Z"></path></g><g transform="translate(-382,-134) scale(1,1)"><path fill="none" stroke="#000000" d="M 832 769 C 832 759.6111584 858.862912 752 892 752 C 925.137088 752 952 759.6111584 952 769 C 952 778.3888416 925.137088 786 892 786 C 858.862912 786 832 778.3888416 832 769 Z" stroke-miterlimit="10"></path></g><g transform="translate(-382,-134) scale(1,1)"><g><path fill="none" stroke="none"></path><text fill="#000000" stroke="none" font-family="Arial" font-size="13px" font-style="normal" font-weight="bold" text-decoration="none" x="855.5" y="776">Delete game</text></g></g><g transform="translate(-382,-134) scale(1,1)"><path fill="#C0C0C0" stroke="none" d="M 1039 696 C 1039 686.6111584 1118.0217327999999 679 1215.5 679 C 1312.9782672000001 679 1392 686.6111584 1392 696 C 1392 705.3888416 1312.9782672000001 713 1215.5 713 C 1118.0217327999999 713 1039 705.3888416 1039 696 Z" opacity="0.2"></path></g><g transform="translate(-382,-134) scale(1,1)"><path fill="#ffffff" stroke="none" d="M 1032 689 C 1032 679.6111584 1111.0217327999999 672 1208.5 672 C 1305.9782672000001 672 1385 679.6111584 1385 689 C 1385 698.3888416 1305.9782672000001 706 1208.5 706 C 1111.0217327999999 706 1032 698.3888416 1032 689 Z"></path></g><g transform="translate(-382,-134) scale(1,1)"><path fill="none" stroke="#000000" d="M 1032 689 C 1032 679.6111584 1111.0217327999999 672 1208.5 672 C 1305.9782672000001 672 1385 679.6111584 1385 689 C 1385 698.3888416 1305.9782672000001 706 1208.5 706 C 1111.0217327999999 706 1032 698.3888416 1032 689 Z" stroke-miterlimit="10"></path></g><g transform="translate(-382,-134) scale(1,1)"><g><path fill="none" stroke="none"></path><text fill="#000000" stroke="none" font-family="Arial" font-size="13px" font-style="normal" font-weight="bold" text-decoration="none" x="1095.5" y="696">Report game score for games of squad</text></g></g><g transform="translate(-382,-134) scale(1,1)"><path fill="#C0C0C0" stroke="none" d="M 1327 760 C 1327 750.6111584 1405.5740176 743 1502.5 743 C 1599.4259824 743 1678 750.6111584 1678 760 C 1678 769.3888416 1599.4259824 777 1502.5 777 C 1405.5740176 777 1327 769.3888416 1327 760 Z" opacity="0.2"></path></g><g transform="translate(-382,-134) scale(1,1)"><path fill="#ffffff" stroke="none" d="M 1320 753 C 1320 743.6111584 1398.5740176 736 1495.5 736 C 1592.4259824 736 1671 743.6111584 1671 753 C 1671 762.3888416 1592.4259824 770 1495.5 770 C 1398.5740176 770 1320 762.3888416 1320 753 Z"></path></g><g transform="translate(-382,-134) scale(1,1)"><path fill="none" stroke="#000000" d="M 1320 753 C 1320 743.6111584 1398.5740176 736 1495.5 736 C 1592.4259824 736 1671 743.6111584 1671 753 C 1671 762.3888416 1592.4259824 770 1495.5 770 C 1398.5740176 770 1320 762.3888416 1320 753 Z" stroke-miterlimit="10"></path></g><g transform="translate(-382,-134) scale(1,1)"><g><path fill="none" stroke="none"></path><text fill="#000000" stroke="none" font-family="Arial" font-size="13px" font-style="normal" font-weight="bold" text-decoration="none" x="1384.5" y="760">Report spirit score for games of squad</text></g></g><g transform="translate(-382,-134) scale(1,1)"><path fill="none" stroke="#000000" d="M 512 300 L 831 377" stroke-miterlimit="10"></path></g><g transform="translate(-382,-134) scale(1,1)"><path fill="#C0C0C0" stroke="none" d="M 783 312 C 783 302.6111584 837.3973968 295 904.5 295 C 971.6026032 295 1026 302.6111584 1026 312 C 1026 321.3888416 971.6026032 329 904.5 329 C 837.3973968 329 783 321.3888416 783 312 Z" opacity="0.2"></path></g><g transform="translate(-382,-134) scale(1,1)"><path fill="#ffffff" stroke="none" d="M 776 305 C 776 295.6111584 830.3973968 288 897.5 288 C 964.6026032 288 1019 295.6111584 1019 305 C 1019 314.3888416 964.6026032 322 897.5 322 C 830.3973968 322 776 314.3888416 776 305 Z"></path></g><g transform="translate(-382,-134) scale(1,1)"><path fill="none" stroke="#000000" d="M 776 305 C 776 295.6111584 830.3973968 288 897.5 288 C 964.6026032 288 1019 295.6111584 1019 305 C 1019 314.3888416 964.6026032 322 897.5 322 C 830.3973968 322 776 314.3888416 776 305 Z" stroke-miterlimit="10"></path></g><g transform="translate(-382,-134) scale(1,1)"><g><path fill="none" stroke="none"></path><text fill="#000000" stroke="none" font-family="Arial" font-size="13px" font-style="normal" font-weight="bold" text-decoration="none" x="821.5" y="312">Create authorization token</text></g></g><g transform="translate(-382,-134) scale(1,1)"><path fill="none" stroke="#000000" d="M 895 375 L 897 323" stroke-miterlimit="10" stroke-dasharray="3"></path></g><g transform="translate(-382,-134) scale(1,1)"><path fill="none" stroke="#000000" d="M 900.81582433383 333.31695132552977 L 897 323 L 892.4030090188141 332.9933815057215" stroke-miterlimit="10"></path></g><g transform="translate(-382,-134) scale(1,1)"><g><path fill="none" stroke="none"></path><text fill="#000000" stroke="none" font-family="Arial" font-size="13px" font-style="normal" font-weight="normal" text-decoration="none" x="839" y="354">«include»</text></g></g><g transform="translate(-382,-134) scale(1,1)"><path fill="#C0C0C0" stroke="none" d="M 719 504 C 719 494.6111584 744.0720512 487 775 487 C 805.9279488 487 831 494.6111584 831 504 C 831 513.3888416 805.9279488 521 775 521 C 744.0720512 521 719 513.3888416 719 504 Z" opacity="0.2"></path></g><g transform="translate(-382,-134) scale(1,1)"><path fill="#ffffff" stroke="none" d="M 712 497 C 712 487.6111584 737.0720512 480 768 480 C 798.9279488 480 824 487.6111584 824 497 C 824 506.3888416 798.9279488 514 768 514 C 737.0720512 514 712 506.3888416 712 497 Z"></path></g><g transform="translate(-382,-134) scale(1,1)"><path fill="none" stroke="#000000" d="M 712 497 C 712 487.6111584 737.0720512 480 768 480 C 798.9279488 480 824 487.6111584 824 497 C 824 506.3888416 798.9279488 514 768 514 C 737.0720512 514 712 506.3888416 712 497 Z" stroke-miterlimit="10"></path></g><g transform="translate(-382,-134) scale(1,1)"><g><path fill="none" stroke="none"></path><text fill="#000000" stroke="none" font-family="Arial" font-size="13px" font-style="normal" font-weight="bold" text-decoration="none" x="735" y="504">Create field</text></g></g><g transform="translate(-382,-134) scale(1,1)"><path fill="#C0C0C0" stroke="none" d="M 911 504 C 911 494.6111584 932.7141872 487 959.5 487 C 986.2858128 487 1008 494.6111584 1008 504 C 1008 513.3888416 986.2858128 521 959.5 521 C 932.7141872 521 911 513.3888416 911 504 Z" opacity="0.2"></path></g><g transform="translate(-382,-134) scale(1,1)"><path fill="#ffffff" stroke="none" d="M 904 497 C 904 487.6111584 925.7141872 480 952.5 480 C 979.2858128 480 1001 487.6111584 1001 497 C 1001 506.3888416 979.2858128 514 952.5 514 C 925.7141872 514 904 506.3888416 904 497 Z"></path></g><g transform="translate(-382,-134) scale(1,1)"><path fill="none" stroke="#000000" d="M 904 497 C 904 487.6111584 925.7141872 480 952.5 480 C 979.2858128 480 1001 487.6111584 1001 497 C 1001 506.3888416 979.2858128 514 952.5 514 C 925.7141872 514 904 506.3888416 904 497 Z" stroke-miterlimit="10"></path></g><g transform="translate(-382,-134) scale(1,1)"><g><path fill="none" stroke="none"></path><text fill="#000000" stroke="none" font-family="Arial" font-size="13px" font-style="normal" font-weight="bold" text-decoration="none" x="927" y="504">Add field</text></g></g><g transform="translate(-382,-134) scale(1,1)"><path fill="#C0C0C0" stroke="none" d="M 799 712 C 799 702.6111584 822.9527632 695 852.5 695 C 882.0472368 695 906 702.6111584 906 712 C 906 721.3888416 882.0472368 729 852.5 729 C 822.9527632 729 799 721.3888416 799 712 Z" opacity="0.2"></path></g><g transform="translate(-382,-134) scale(1,1)"><path fill="#ffffff" stroke="none" d="M 792 705 C 792 695.6111584 815.9527632 688 845.5 688 C 875.0472368 688 899 695.6111584 899 705 C 899 714.3888416 875.0472368 722 845.5 722 C 815.9527632 722 792 714.3888416 792 705 Z"></path></g><g transform="translate(-382,-134) scale(1,1)"><path fill="none" stroke="#000000" d="M 792 705 C 792 695.6111584 815.9527632 688 845.5 688 C 875.0472368 688 899 695.6111584 899 705 C 899 714.3888416 875.0472368 722 845.5 722 C 815.9527632 722 792 714.3888416 792 705 Z" stroke-miterlimit="10"></path></g><g transform="translate(-382,-134) scale(1,1)"><g><path fill="none" stroke="none"></path><text fill="#000000" stroke="none" font-family="Arial" font-size="13px" font-style="normal" font-weight="bold" text-decoration="none" x="814.5" y="712">Add squad</text></g></g><g transform="translate(-382,-134) scale(1,1)"><path fill="none" stroke="#000000" d="M 518 650 L 791 696" stroke-miterlimit="10"></path></g><g transform="translate(-382,-134) scale(1,1)"><path fill="none" stroke="#000000" d="M 518 634 L 855 608" stroke-miterlimit="10"></path></g><g transform="translate(-382,-134) scale(1,1)"><path fill="none" stroke="#000000" d="M 518 610 L 728 515" stroke-miterlimit="10"></path></g><g transform="translate(-382,-134) scale(1,1)"><path fill="none" stroke="#000000" d="M 518 621 L 903 511" stroke-miterlimit="10"></path></g><g transform="translate(-382,-134) scale(1,1)"><path fill="none" stroke="#000000" d="M 947 583 L 951 515" stroke-miterlimit="10" stroke-dasharray="3"></path></g><g transform="translate(-382,-134) scale(1,1)"><path fill="none" stroke="#000000" d="M 954.6054808831808 525.39232926735 L 951 515 L 946.200973484669 524.8979464792021" stroke-miterlimit="10"></path></g><g transform="translate(-382,-134) scale(1,1)"><g><path fill="none" stroke="none"></path><text fill="#000000" stroke="none" font-family="Arial" font-size="13px" font-style="normal" font-weight="normal" text-decoration="none" x="892" y="554">«include»</text></g></g><g transform="translate(-382,-134) scale(1,1)"><path fill="none" stroke="#000000" d="M 518 666 L 851 807" stroke-miterlimit="10"></path></g><g transform="translate(-382,-134) scale(1,1)"><path fill="none" stroke="#000000" d="M 518 679 L 850 887" stroke-miterlimit="10"></path></g><g transform="translate(-382,-134) scale(1,1)"><path fill="none" stroke="#000000" d="M 1316 1047 L 1213 707" stroke-miterlimit="10"></path></g><g transform="translate(-382,-134) scale(1,1)"><path fill="none" stroke="#000000" d="M 1348 1047 L 1486 771" stroke-miterlimit="10"></path></g><g transform="translate(-382,-134) scale(1,1)"><path fill="#C0C0C0" stroke="none" d="M 991 416 C 991 406.6111584 1052.7846976 399 1129 399 C 1205.2153024 399 1267 406.6111584 1267 416 C 1267 425.3888416 1205.2153024 433 1129 433 C 1052.7846976 433 991 425.3888416 991 416 Z" opacity="0.2"></path></g><g transform="translate(-382,-134) scale(1,1)"><path fill="#ffffff" stroke="none" d="M 984 409 C 984 399.6111584 1045.7846976 392 1122 392 C 1198.2153024 392 1260 399.6111584 1260 409 C 1260 418.3888416 1198.2153024 426 1122 426 C 1045.7846976 426 984 418.3888416 984 409 Z"></path></g><g transform="translate(-382,-134) scale(1,1)"><path fill="none" stroke="#000000" d="M 984 409 C 984 399.6111584 1045.7846976 392 1122 392 C 1198.2153024 392 1260 399.6111584 1260 409 C 1260 418.3888416 1198.2153024 426 1122 426 C 1045.7846976 426 984 418.3888416 984 409 Z" stroke-miterlimit="10"></path></g><g transform="translate(-382,-134) scale(1,1)"><g><path fill="none" stroke="none"></path><text fill="#000000" stroke="none" font-family="Arial" font-size="13px" font-style="normal" font-weight="bold" text-decoration="none" x="1034.5" y="416">Edit game score for any game</text></g></g><g transform="translate(-382,-134) scale(1,1)"><path fill="#C0C0C0" stroke="none" d="M 1039 579.5 C 1039 563.7598832 1105.7095648 551 1188 551 C 1270.2904352 551 1337 563.7598832 1337 579.5 C 1337 595.2401168 1270.2904352 608 1188 608 C 1105.7095648 608 1039 595.2401168 1039 579.5 Z" opacity="0.2"></path></g><g transform="translate(-382,-134) scale(1,1)"><path fill="#ffffff" stroke="none" d="M 1032 572.5 C 1032 556.7598832 1098.7095648 544 1181 544 C 1263.2904352 544 1330 556.7598832 1330 572.5 C 1330 588.2401168 1263.2904352 601 1181 601 C 1098.7095648 601 1032 588.2401168 1032 572.5 Z"></path></g><g transform="translate(-382,-134) scale(1,1)"><path fill="none" stroke="#000000" d="M 1032 572.5 C 1032 556.7598832 1098.7095648 544 1181 544 C 1263.2904352 544 1330 556.7598832 1330 572.5 C 1330 588.2401168 1263.2904352 601 1181 601 C 1098.7095648 601 1032 588.2401168 1032 572.5 Z" stroke-miterlimit="10"></path></g><g transform="translate(-382,-134) scale(1,1)"><g><path fill="none" stroke="none"></path><text fill="#000000" stroke="none" font-family="Arial" font-size="13px" font-style="normal" font-weight="bold" text-decoration="none" x="1086" y="579.5">Report game score for any game</text></g></g><g transform="translate(-382,-134) scale(1,1)"><path fill="#C0C0C0" stroke="none" d="M 1303 392 C 1303 382.6111584 1391.8714672 375 1501.5 375 C 1611.1285328 375 1700 382.6111584 1700 392 C 1700 401.3888416 1611.1285328 409 1501.5 409 C 1391.8714672 409 1303 401.3888416 1303 392 Z" opacity="0.2"></path></g><g transform="translate(-382,-134) scale(1,1)"><path fill="#ffffff" stroke="none" d="M 1296 385 C 1296 375.6111584 1384.8714672 368 1494.5 368 C 1604.1285328 368 1693 375.6111584 1693 385 C 1693 394.3888416 1604.1285328 402 1494.5 402 C 1384.8714672 402 1296 394.3888416 1296 385 Z"></path></g><g transform="translate(-382,-134) scale(1,1)"><path fill="none" stroke="#000000" d="M 1296 385 C 1296 375.6111584 1384.8714672 368 1494.5 368 C 1604.1285328 368 1693 375.6111584 1693 385 C 1693 394.3888416 1604.1285328 402 1494.5 402 C 1384.8714672 402 1296 394.3888416 1296 385 Z" stroke-miterlimit="10"></path></g><g transform="translate(-382,-134) scale(1,1)"><g><path fill="none" stroke="none"></path><text fill="#000000" stroke="none" font-family="Arial" font-size="13px" font-style="normal" font-weight="bold" text-decoration="none" x="1367.5" y="392">Edit spirit score for any game and any party</text></g></g><g transform="translate(-382,-134) scale(1,1)"><path fill="none" stroke="#000000" d="M 1204 671 L 1188 602" stroke-miterlimit="10" stroke-dasharray="3"></path></g><g transform="translate(-382,-134) scale(1,1)"><path fill="none" stroke="#000000" d="M 1194.3963646254963 610.9491071944468 L 1188 602 L 1186.1949384188715 612.8508871843889" stroke-miterlimit="10"></path></g><g transform="translate(-382,-134) scale(1,1)"><g><path fill="none" stroke="none"></path><text fill="#000000" stroke="none" font-family="Arial" font-size="13px" font-style="normal" font-weight="normal" text-decoration="none" x="1139" y="649">«include»</text></g></g><g transform="translate(-382,-134) scale(1,1)"><path fill="#C0C0C0" stroke="none" d="M 1359 624 C 1359 614.6111584 1425.037992 607 1506.5 607 C 1587.962008 607 1654 614.6111584 1654 624 C 1654 633.3888416 1587.962008 641 1506.5 641 C 1425.037992 641 1359 633.3888416 1359 624 Z" opacity="0.2"></path></g><g transform="translate(-382,-134) scale(1,1)"><path fill="#ffffff" stroke="none" d="M 1352 617 C 1352 607.6111584 1418.037992 600 1499.5 600 C 1580.962008 600 1647 607.6111584 1647 617 C 1647 626.3888416 1580.962008 634 1499.5 634 C 1418.037992 634 1352 626.3888416 1352 617 Z"></path></g><g transform="translate(-382,-134) scale(1,1)"><path fill="none" stroke="#000000" d="M 1352 617 C 1352 607.6111584 1418.037992 600 1499.5 600 C 1580.962008 600 1647 607.6111584 1647 617 C 1647 626.3888416 1580.962008 634 1499.5 634 C 1418.037992 634 1352 626.3888416 1352 617 Z" stroke-miterlimit="10"></path></g><g transform="translate(-382,-134) scale(1,1)"><g><path fill="none" stroke="none"></path><text fill="#000000" stroke="none" font-family="Arial" font-size="13px" font-style="normal" font-weight="bold" text-decoration="none" x="1406.5" y="624">Report spirit score for any game</text></g></g><g transform="translate(-382,-134) scale(1,1)"><path fill="none" stroke="#000000" d="M 1313 224 L 1192 543" stroke-miterlimit="10"></path></g><g transform="translate(-382,-134) scale(1,1)"><path fill="none" stroke="#000000" d="M 1344 224 L 1492 599" stroke-miterlimit="10"></path></g><g transform="translate(-382,-134) scale(1,1)"><path fill="none" stroke="#000000" d="M 1496 735 L 1498 635" stroke-miterlimit="10" stroke-dasharray="3"></path></g><g transform="translate(-382,-134) scale(1,1)"><path fill="none" stroke="#000000" d="M 1502.0054632463075 645.244816454309 L 1498 635 L 1493.5881110364041 645.0764694101109" stroke-miterlimit="10"></path></g><g transform="translate(-382,-134) scale(1,1)"><g><path fill="none" stroke="none"></path><text fill="#000000" stroke="none" font-family="Arial" font-size="13px" font-style="normal" font-weight="normal" text-decoration="none" x="1440" y="691">«include»</text></g></g><g transform="translate(-382,-134) scale(1,1)"><path fill="none" stroke="#000000" d="M 1303 210 L 1138 391" stroke-miterlimit="10"></path></g><g transform="translate(-382,-134) scale(1,1)"><path fill="none" stroke="#000000" d="M 1354 215 L 1479 367" stroke-miterlimit="10"></path></g><g transform="translate(-382,-134) scale(1,1)"><path fill="none" stroke="#000000" d="M 518 658 L 831 751" stroke-miterlimit="10"></path></g></g></svg>